<?xml version="1.0" encoding="UTF-8"?>
<svg xmlns="http://www.w3.org/2000/svg" viewBox="0 0 512 512">
  <path fill="#F05032" d="M503.2 236.5L275.5 8.8c-13-13-34.1-13-47.1 0L181.7 55.5l43.7 43.7c10.2-3.4 21.8-1.1 29.8 7 8.1 8.1 10.3 19.9 6.7 30.2l42.1 42.1c10.3-3.6 22.1-1.4 30.2 6.7 11.3 11.3 11.3 29.7 0 41-11.3 11.3-29.7 11.3-41 0-8.5-8.5-10.6-21-6.2-31.5l-39.3-39.3v103.3c2.8 1.4 5.4 3.2 7.7 5.5 11.3 11.3 11.3 29.7 0 41-11.3 11.3-29.7 11.3-41 0-11.3-11.3-11.3-29.7 0-41 2.8-2.8 6-4.9 9.4-6.3V155.1c-3.4-1.4-6.6-3.5-9.4-6.3-8.6-8.6-10.6-21.2-6.1-31.7l-43.1-43.1L8.8 228.4c-13 13-13 34.1 0 47.1l227.7 227.7c13 13 34.1 13 47.1 0l226.6-226.6c13-13.1 13-34.2 0-47.2z"/>
</svg> 