<?xml version="1.0" encoding="UTF-8"?>
<svg xmlns="http://www.w3.org/2000/svg" viewBox="0 0 512 512">
  <rect width="512" height="512" fill="#F7DF1E"/>
  <path d="M324.4,370.8c5.8,9.4,13.3,16.4,26.6,16.4c11.2,0,18.3-5.6,18.3-13.3c0-9.2-7.3-12.5-19.6-17.9l-6.7-2.9c-19.4-8.3-32.3-18.7-32.3-40.7c0-20.2,15.4-35.6,39.5-35.6c17.1,0,29.4,6,38.3,21.6l-21,13.5c-4.6-8.3-9.6-11.6-17.3-11.6c-7.9,0-12.9,5-12.9,11.6c0,8.1,5,11.4,16.7,16.5l6.7,2.9c22.9,9.8,35.8,19.8,35.8,42.3c0,24.3-19.1,37.6-44.7,37.6c-25,0-41.2-11.9-49.1-27.5L324.4,370.8z M217.7,373.1c4.2,7.5,8.1,13.8,17.3,13.8c8.8,0,14.4-3.5,14.4-16.9V276.7h28.8v94.2c0,29.8-17.5,43.3-43.1,43.3c-23.1,0-36.4-12-43.1-26.4L217.7,373.1z"/>
</svg> 