<?xml version="1.0" encoding="UTF-8"?>
<svg xmlns="http://www.w3.org/2000/svg" viewBox="0 0 512 512">
  <path fill="#00758F" d="M266.6 155.8c-2.4 0-4.1.2-5.8.5v.2h.3c1.1 2.3 3.1 3.9 4.5 5.9 1.1 2.3 2.1 4.5 3.2 6.8.2-.2.3-.4.3-.6 1-1.7 1.1-3.6 1.1-5.5-.3-1.5-.4-3-1.3-4.2-1-1.5-3.2-2.3-2.3-3.1z"/>
  <path fill="#00758F" d="M485.5 231.4c-28.8-.6-51.1 2.2-69.9 10.3-5.4 2.3-14 2.3-14.7 9.5 2.9 2.9 3.3 7.5 5.8 11.4 4.3 7.2 11.9 17 18.8 22.1 7.5 5.6 15.2 11.4 23.2 16.3 14.2 8.6 30.2 13.6 44 22.3 8 5.2 16.1 11.7 24.2 17.2 4 2.8 6.5 7.3 11.6 9v-.9c-2.6-3.3-3.4-7.9-5.8-11.6-3.6-3.6-7.3-6.8-11-10.4-10.7-14.3-24-26.8-38.3-37.2-11.7-8.1-37.4-19.2-42.2-32.7l-.7-.7c8.1-.7 17.7-3.7 25.4-5.8 12.6-3.4 24-2.6 37-5.8 5.8-1.5 11.8-3.4 17.7-5.2v-3.4c-6.6-6.8-11.4-15.8-18.4-22.1-18.8-16.3-39.4-32.3-60.7-45.7-11.5-7.3-26.3-12-38.6-18.2-4.2-2.1-11.4-3.2-14-6.8-6.4-8-10.1-18.3-14.7-27.6-10.3-19.4-20.3-40.8-29.2-61.3-6.2-14-10.1-27.8-17.7-40.6-35.9-60.5-74.8-97.1-134.8-133-12.8-7.6-28.2-10.8-44.5-14.8-8.7-.4-17.3-.8-26-.9-5.6-2.4-11.2-8.9-16.3-12-20.3-12-72.5-40.6-87.5-3.9-9.5 23.2 14.2 46 22.4 57.7 6 8.3 13.7 17.7 18 27.1 2.6 6.2 3.3 12.6 5.8 19.1 6 16.5 11.6 34.8 19.5 50.3 4.1 7.9 8.6 16.2 13.8 23.4 3 4.2 8.2 6.1 9.3 12.9-5.2 7.4-5.6 18.6-8.6 27.9-13.4 42.1-8.2 94.3 11 125.3 5.8 9.5 19.7 30.3 38.3 22.3 16.4-6.8 12.8-27.4 17.5-45.7 1.1-4.3.4-7.3 2.6-10.2v.8c5.2 10.4 10.4 20.4 15.2 30.7 11.4 18.1 31.3 37 48 49.6 8.8 6.6 15.7 18 26.7 22.1v-.9h-.7c-2.2-3.4-5.6-4.8-8.6-7.4-6.7-6.7-14.2-15-19.5-22.5-15.7-21.2-29.5-44.4-41.9-68.5-6-11.8-11.3-24.7-16.3-36.5-2.2-4.3-2.2-10.8-5.8-13-5.4 7.9-13.3 14.7-17.3 24.4-6.6 15.5-7.4 34.4-9.9 54.2-1.4.2-.7 0-1.5.4-11.6-2.8-15.7-14.8-20-24.9-10.9-25.6-12.8-66.7-3.3-96.3 2.5-7.5 13.4-31.1 9-38.3-2.2-6.9-9.5-10.9-13.5-16.3-5-6.8-10.1-15.7-13.5-23.4-9-20.3-13.4-42.8-23.2-63.1-4.6-9.7-12.6-19.6-19.1-28.6-7.2-10-15-21.4-20.4-32.3-1.9-3.9-4.6-10.2-1.5-14.4 1-2.8 2.4-3.9 5.5-4.7 5.2-4.4 19.9 1.4 25.1 3.7 14.5 5.8 26.5 11.4 38.6 19.5 5.6 3.8 11.3 11.1 18.2 13.1h8.1c12.3 2.8 26.1.8 37.7 4.3 20.4 6.6 38.8 16.3 55.3 26.9 50.4 32.5 91.7 78.7 119.8 133.8 4.6 9 6.6 17.5 10.8 27 8.2 19.2 18.3 38.8 26.4 57.7 8.1 18.6 16 37.4 27.6 52.7 5.8 8.1 29.1 12.4 39.5 16.7 7.7 3.7 19.5 7 26.3 11.4 13.3 8.7 26.3 18.6 38.6 28.2 6.1 4.9 25.1 14 26.1 21.7z"/>
</svg> 