<?xml version="1.0" encoding="UTF-8"?>
<svg xmlns="http://www.w3.org/2000/svg" viewBox="0 0 512 512">
  <path fill="#3776AB" d="M254.5,262.5H257c35.24,0,64-28.76,64-64v-82c0-35.24-28.76-64-64-64h-2c-35.24,0-64,28.76-64,64v82 C191,233.74,219.26,262.5,254.5,262.5z"/>
  <path fill="#FFD43B" d="M257.5,262.5H255c-35.24,0-64,28.76-64,64v82c0,35.24,28.76,64,64,64h2c35.24,0,64-28.76,64-64v-82 C321,291.26,292.74,262.5,257.5,262.5z"/>
  <circle fill="#3776AB" cx="319" cy="145.5" r="15"/>
  <circle fill="#FFD43B" cx="191" cy="368.5" r="15"/>
  <path fill="#fff" d="M257,52.5c-35.24,0-64,28.76-64,64v82h64v-82C257,81.26,257,52.5,257,52.5z"/>
  <path fill="#fff" d="M255,262.5c35.24,0,64,28.76,64,64v82h-64v-82C255,291.26,255,262.5,255,262.5z"/>
</svg> 